<?xml version="1.0" standalone="no"?>
<!DOCTYPE svg PUBLIC "-//W3C//DTD SVG 1.1//EN" "http://www.w3.org/Graphics/SVG/1.1/DTD/svg11.dtd" >
<svg xmlns="http://www.w3.org/2000/svg" xmlns:xlink="http://www.w3.org/1999/xlink" version="1.1">
<metadata></metadata>
<defs>
<font id="zdyk_sagittariusregular" horiz-adv-x="1500" >
<font-face units-per-em="2048" ascent="1638" descent="-410" />
<missing-glyph horiz-adv-x="508" />
<glyph unicode="&#xd;" horiz-adv-x="508" />
<glyph horiz-adv-x="0" />
<glyph horiz-adv-x="0" />
<glyph unicode=" "  horiz-adv-x="508" />
<glyph unicode="&#x09;" horiz-adv-x="508" />
<glyph unicode="&#xa0;" horiz-adv-x="508" />
<glyph unicode="!" horiz-adv-x="500" d="M0 200q0 83 58.5 141.5t141.5 58.5t141.5 -58.5t58.5 -141.5t-58.5 -141.5t-141.5 -58.5t-141.5 58.5t-58.5 141.5zM100 500v900h200v-900h-200z" />
<glyph unicode="&#x22;" horiz-adv-x="1000" d="M0 1200q0 83 58.5 141.5t141.5 58.5t141.5 -58.5t58.5 -141.5t-58 -141q-20 -20 -42 -33v-226h-200v226q-22 13 -41 33q-59 58 -59 141zM500 1200q0 83 58.5 141.5t141.5 58.5t141.5 -58.5t58.5 -141.5t-58 -141q-20 -20 -42 -33v-226h-200v226q-22 13 -41 33 q-59 58 -59 141z" />
<glyph unicode="#" horiz-adv-x="900" d="M0 400v200h100v200h-100v200h100v100h200v-100h200v100h200v-100h100v-200h-100v-200h100v-200h-100v-100h-200v100h-200v-100h-200v100h-100zM300 600h200v200h-200v-200z" />
<glyph unicode="$" d="M0 700q0 290 205 495q169 169 395 199v106h200v-626q22 -13 42 -32q58 -59 58 -142t-58 -141q-20 -20 -42 -33v-317q144 28 254 138q146 146 146 353h200q0 -290 -205 -495q-169 -169 -395 -199v-143h-200v663q-22 13 -41 33q-59 58 -59 141t59 142q19 19 41 32v317 q-144 -28 -253 -137q-147 -147 -147 -354h-200z" />
<glyph unicode="%" d="M0 200q0 83 59 142q19 19 41 32v1026h200v-1026q22 -13 42 -32q58 -59 58 -142t-58.5 -141.5t-141.5 -58.5t-141.5 58.5t-58.5 141.5zM500 700q0 83 58.5 141.5t141.5 58.5t141.5 -58.5t58.5 -141.5t-58.5 -141.5t-141.5 -58.5t-141.5 58.5t-58.5 141.5zM1000 1200 q0 83 58.5 141.5t141.5 58.5t141.5 -58.5t58.5 -141.5t-58 -141q-20 -20 -42 -33v-1026h-200v1026q-22 13 -41 33q-59 58 -59 141z" />
<glyph unicode="&#x26;" d="M0 700q0 290 205 495t495 205v-200q-207 0 -353.5 -146.5t-146.5 -353.5t147 -353q109 -110 253 -138v317q-22 13 -41 33q-59 58 -59 141t58.5 141.5t141.5 58.5t141.5 -58.5t58.5 -141.5t-58 -141q-20 -20 -42 -33v-317q144 28 254 138q146 146 146 353h200 q0 -290 -205 -495t-495 -205t-495 205t-205 495zM1000 1200q0 83 58.5 141.5t141.5 58.5t141.5 -58.5t58.5 -141.5t-58.5 -141.5t-141.5 -58.5t-141.5 58.5t-58.5 141.5z" />
<glyph unicode="'" horiz-adv-x="500" d="M0 1200q0 83 58.5 141.5t141.5 58.5t141.5 -58.5t58.5 -141.5t-58 -141q-20 -20 -42 -33v-226h-200v226q-22 13 -41 33q-59 58 -59 141z" />
<glyph unicode="(" horiz-adv-x="800" d="M0 700q0 290 205 495t495 205v-200q-207 0 -353.5 -146.5t-146.5 -353.5t146.5 -353.5t353.5 -146.5v-200q-290 0 -495 205t-205 495z" />
<glyph unicode=")" horiz-adv-x="800" d="M0 0v200q207 0 353.5 146.5t146.5 353.5t-146.5 353.5t-353.5 146.5v200q290 0 495 -205t205 -495t-205 -495t-495 -205z" />
<glyph unicode="*" horiz-adv-x="500" d="M0 700q0 83 58.5 141.5t141.5 58.5t141.5 -58.5t58.5 -141.5t-58.5 -141.5t-141.5 -58.5t-141.5 58.5t-58.5 141.5z" />
<glyph unicode="+" horiz-adv-x="900" d="M0 600v200h300v300h200v-300h300v-200h-300v-300h-200v300h-300z" />
<glyph unicode="," horiz-adv-x="500" d="M0 200q0 83 58.5 141.5t141.5 58.5t141.5 -58.5t58.5 -141.5t-58 -141q-20 -20 -42 -33v-226h-200v226q-22 13 -41 33q-59 58 -59 141z" />
<glyph unicode="-" horiz-adv-x="900" d="M0 600v200h800v-200h-800z" />
<glyph unicode="." horiz-adv-x="500" d="M0 200q0 83 58.5 141.5t141.5 58.5t141.5 -58.5t58.5 -141.5t-58.5 -141.5t-141.5 -58.5t-141.5 58.5t-58.5 141.5z" />
<glyph unicode="/" d="M0 200q0 83 58.5 141.5t141.5 58.5t141.5 -58.5t58.5 -141.5t-58.5 -141.5t-141.5 -58.5t-141.5 58.5t-58.5 141.5zM500 700q0 83 58.5 141.5t141.5 58.5t141.5 -58.5t58.5 -141.5t-58.5 -141.5t-141.5 -58.5t-141.5 58.5t-58.5 141.5zM1000 1200q0 83 58.5 141.5 t141.5 58.5t141.5 -58.5t58.5 -141.5t-58.5 -141.5t-141.5 -58.5t-141.5 58.5t-58.5 141.5z" />
<glyph unicode="0" d="M0 700q0 290 205 495t495 205t495 -205t205 -495t-205 -495t-495 -205t-495 205t-205 495zM200 700q0 -207 146.5 -353.5t353.5 -146.5t353.5 146.5t146.5 353.5t-146.5 353.5t-353.5 146.5t-353.5 -146.5t-146.5 -353.5z" />
<glyph unicode="1" horiz-adv-x="300" d="M0 0v1400h200v-1400h-200z" />
<glyph unicode="2" d="M0 700h200q0 -207 146.5 -353.5t353.5 -146.5v-200q-290 0 -495 205t-205 495zM500 700q0 83 58.5 141.5t141.5 58.5t141.5 -58.5t58.5 -141.5t-58.5 -141.5t-141.5 -58.5t-141.5 58.5t-58.5 141.5zM700 1200v200q290 0 495 -205t205 -495h-200q0 207 -146.5 353.5 t-353.5 146.5z" />
<glyph unicode="3" d="M0 700h200q0 -207 146.5 -353.5t353.5 -146.5t353.5 146.5t146.5 353.5t-146.5 353.5t-353.5 146.5v200q290 0 495 -205t205 -495t-205 -495t-495 -205t-495 205t-205 495zM500 700q0 83 58.5 141.5t141.5 58.5t141.5 -58.5t58.5 -141.5t-58.5 -141.5t-141.5 -58.5 t-141.5 58.5t-58.5 141.5z" />
<glyph unicode="4" d="M0 700v700h200v-700h-200zM500 700q0 83 58.5 141.5t141.5 58.5t141.5 -58.5t58.5 -141.5t-58.5 -141.5t-141.5 -58.5t-141.5 58.5t-58.5 141.5zM1200 0v1400h200v-1400h-200z" />
<glyph unicode="5" d="M0 700q0 290 205 495t495 205v-200q-207 0 -353.5 -146.5t-146.5 -353.5h-200zM500 700q0 83 58.5 141.5t141.5 58.5t141.5 -58.5t58.5 -141.5t-58.5 -141.5t-141.5 -58.5t-141.5 58.5t-58.5 141.5zM700 0v200q207 0 353.5 146.5t146.5 353.5h200q0 -290 -205 -495 t-495 -205z" />
<glyph unicode="6" d="M0 700q0 290 205 495t495 205v-200q-207 0 -353.5 -146.5t-146.5 -353.5t146.5 -353.5t353.5 -146.5t353.5 146.5t146.5 353.5h200q0 -290 -205 -495t-495 -205t-495 205t-205 495zM500 700q0 83 58.5 141.5t141.5 58.5t141.5 -58.5t58.5 -141.5t-58.5 -141.5 t-141.5 -58.5t-141.5 58.5t-58.5 141.5z" />
<glyph unicode="7" d="M0 700q0 290 205 495t495 205t495 -205t205 -495v-700h-200v700q0 207 -146.5 353.5t-353.5 146.5t-353.5 -146.5t-146.5 -353.5h-200zM500 700q0 83 58.5 141.5t141.5 58.5t141.5 -58.5t58.5 -141.5t-58.5 -141.5t-141.5 -58.5t-141.5 58.5t-58.5 141.5z" />
<glyph unicode="8" d="M0 700q0 290 205 495t495 205t495 -205t205 -495t-205 -495t-495 -205t-495 205t-205 495zM200 700q0 -207 146.5 -353.5t353.5 -146.5t353.5 146.5t146.5 353.5t-146.5 353.5t-353.5 146.5t-353.5 -146.5t-146.5 -353.5zM500 700q0 83 58.5 141.5t141.5 58.5 t141.5 -58.5t58.5 -141.5t-58.5 -141.5t-141.5 -58.5t-141.5 58.5t-58.5 141.5z" />
<glyph unicode="9" d="M0 700q0 290 205 495t495 205t495 -205t205 -495t-205 -495t-495 -205v200q207 0 353.5 146.5t146.5 353.5t-146.5 353.5t-353.5 146.5t-353.5 -146.5t-146.5 -353.5h-200zM500 700q0 83 58.5 141.5t141.5 58.5t141.5 -58.5t58.5 -141.5t-58.5 -141.5t-141.5 -58.5 t-141.5 58.5t-58.5 141.5z" />
<glyph unicode=":" horiz-adv-x="500" d="M0 400q0 83 58.5 141.5t141.5 58.5t141.5 -58.5t58.5 -141.5t-58.5 -141.5t-141.5 -58.5t-141.5 58.5t-58.5 141.5zM0 1000q0 83 58.5 141.5t141.5 58.5t141.5 -58.5t58.5 -141.5t-58.5 -141.5t-141.5 -58.5t-141.5 58.5t-58.5 141.5z" />
<glyph unicode=";" horiz-adv-x="500" d="M0 400q0 83 58.5 141.5t141.5 58.5t141.5 -58.5t58.5 -141.5t-58 -141q-20 -20 -42 -33v-226h-200v226q-22 13 -41 33q-59 58 -59 141zM0 1000q0 83 58.5 141.5t141.5 58.5t141.5 -58.5t58.5 -141.5t-58.5 -141.5t-141.5 -58.5t-141.5 58.5t-58.5 141.5z" />
<glyph unicode="&#x3c;" horiz-adv-x="800" d="M0 700q0 290 205 495t495 205v-200q-207 0 -353.5 -146.5t-146.5 -353.5t146.5 -353.5t353.5 -146.5v-200q-290 0 -495 205t-205 495z" />
<glyph unicode="=" horiz-adv-x="900" d="M0 300v200h800v-200h-800zM0 900v200h800v-200h-800z" />
<glyph unicode="&#x3e;" horiz-adv-x="800" d="M0 0v200q207 0 353.5 146.5t146.5 353.5t-146.5 353.5t-353.5 146.5v200q290 0 495 -205t205 -495t-205 -495t-495 -205z" />
<glyph unicode="?" d="M0 700q0 290 205 495t495 205t495 -205t205 -495h-200q0 207 -146.5 353.5t-353.5 146.5t-353.5 -146.5t-146.5 -353.5h-200zM500 200q0 83 58.5 141.5t141.5 58.5t141.5 -58.5t58.5 -141.5t-58.5 -141.5t-141.5 -58.5t-141.5 58.5t-58.5 141.5z" />
<glyph unicode="@" d="M0 700q0 290 205 495t495 205t495 -205t205 -495t-205 -495t-495 -205t-495 205t-205 495zM200 700q0 -207 146.5 -353.5t353.5 -146.5t353.5 146.5t146.5 353.5t-146.5 353.5t-353.5 146.5t-353.5 -146.5t-146.5 -353.5zM500 700q0 83 58.5 141.5t141.5 58.5 t141.5 -58.5t58.5 -141.5t-58.5 -141.5t-141.5 -58.5t-141.5 58.5t-58.5 141.5z" />
<glyph unicode="A" d="M0 0v700q0 290 205 495t495 205t495 -205t205 -495v-700h-200v700q0 207 -146.5 353.5t-353.5 146.5t-353.5 -146.5t-146.5 -353.5v-700h-200zM500 700q0 83 58.5 141.5t141.5 58.5t141.5 -58.5t58.5 -141.5t-58.5 -141.5t-141.5 -58.5t-141.5 58.5t-58.5 141.5z" />
<glyph unicode="B" d="M0 700v700h700q290 0 495 -205t205 -495t-205 -495t-495 -205t-495 205t-205 495zM200 700q0 -207 146.5 -353.5t353.5 -146.5t354 147q109 109 137 253h-317q-13 -22 -32 -41q-59 -59 -142 -59t-141.5 58.5t-58.5 141.5t58.5 141.5t141.5 58.5t142 -58q19 -20 32 -42 h317q-28 144 -137 254q-147 146 -354 146h-500v-500z" />
<glyph unicode="C" d="M0 700q0 290 205 495t495 205v-200q-207 0 -353.5 -146.5t-146.5 -353.5t146.5 -353.5t353.5 -146.5t353.5 146.5t146.5 353.5h200q0 -290 -205 -495t-495 -205t-495 205t-205 495z" />
<glyph unicode="D" d="M0 700q0 290 205 495t495 205t495 -205t205 -495t-205 -495t-495 -205v200q207 0 353.5 146.5t146.5 353.5t-146.5 353.5t-353.5 146.5t-353.5 -146.5t-146.5 -353.5h-200zM500 700q0 83 58.5 141.5t141.5 58.5t141.5 -58.5t58.5 -141.5t-58.5 -141.5t-141.5 -58.5 t-141.5 58.5t-58.5 141.5z" />
<glyph unicode="E" d="M0 0v1400h1400v-200h-1200v-400h326q13 22 33 42q58 58 141 58t141.5 -58.5t58.5 -141.5t-58.5 -141.5t-141.5 -58.5t-141 59q-20 19 -33 41h-326v-400h1200v-200h-1400z" />
<glyph unicode="F" d="M0 0v1400h1400v-200h-1200v-1200h-200zM500 700q0 83 58.5 141.5t141.5 58.5t141.5 -58.5t58.5 -141.5t-58.5 -141.5t-141.5 -58.5t-141.5 58.5t-58.5 141.5z" />
<glyph unicode="G" d="M0 700q0 290 205 495t495 205v-200q-207 0 -353.5 -146.5t-146.5 -353.5t146.5 -353.5t353.5 -146.5t353.5 146.5t146.5 353.5h200q0 -290 -205 -495t-495 -205t-495 205t-205 495zM500 700q0 83 58.5 141.5t141.5 58.5t141.5 -58.5t58.5 -141.5t-58.5 -141.5 t-141.5 -58.5t-141.5 58.5t-58.5 141.5z" />
<glyph unicode="H" d="M0 0v1400h200v-1400h-200zM500 700q0 83 58.5 141.5t141.5 58.5t141.5 -58.5t58.5 -141.5t-58.5 -141.5t-141.5 -58.5t-141.5 58.5t-58.5 141.5zM1200 0v1400h200v-1400h-200z" />
<glyph unicode="I" horiz-adv-x="300" d="M0 0v1400h200v-1400h-200z" />
<glyph unicode="J" d="M0 700h200q0 -207 146.5 -353.5t353.5 -146.5t353.5 146.5t146.5 353.5v700h200v-700q0 -290 -205 -495t-495 -205t-495 205t-205 495zM500 700q0 83 58.5 141.5t141.5 58.5t141.5 -58.5t58.5 -141.5t-58.5 -141.5t-141.5 -58.5t-141.5 58.5t-58.5 141.5z" />
<glyph unicode="K" d="M0 0v1400h200v-600h506q30 226 199 395q205 205 495 205v-200q-207 0 -353.5 -146.5t-146.5 -353.5t146.5 -353.5t353.5 -146.5v-200q-290 0 -495 205q-169 169 -199 395h-506v-600h-200z" />
<glyph unicode="L" d="M0 700v700h200v-700q0 -207 146.5 -353.5t353.5 -146.5t353.5 146.5t146.5 353.5h200q0 -290 -205 -495t-495 -205t-495 205t-205 495zM500 700q0 83 58.5 141.5t141.5 58.5t141.5 -58.5t58.5 -141.5t-58.5 -141.5t-141.5 -58.5t-141.5 58.5t-58.5 141.5z" />
<glyph unicode="M" d="M0 0v700q0 290 205 495t495 205t495 -205t205 -495v-700h-200v700q0 207 -146.5 353.5t-353.5 146.5t-353.5 -146.5t-146.5 -353.5v-700h-200zM500 700q0 83 58.5 141.5t141.5 58.5t141.5 -58.5t58.5 -141.5t-58 -141q-20 -20 -42 -33v-526h-200v526q-22 13 -41 33 q-59 58 -59 141z" />
<glyph unicode="N" d="M0 0v700q0 290 205 495t495 205t495 -205t205 -495v-700h-200v700q0 207 -146.5 353.5t-353.5 146.5t-353.5 -146.5t-146.5 -353.5v-700h-200z" />
<glyph unicode="O" d="M0 700q0 290 205 495t495 205t495 -205t205 -495t-205 -495t-495 -205t-495 205t-205 495zM200 700q0 -207 146.5 -353.5t353.5 -146.5t353.5 146.5t146.5 353.5t-146.5 353.5t-353.5 146.5t-353.5 -146.5t-146.5 -353.5z" />
<glyph unicode="P" d="M0 0v1400h200v-1400h-200zM300 850q0 228 161 389t389 161t389 -161t161 -389t-161 -389t-389 -161t-389 161t-161 389zM500 850q0 -145 102.5 -247.5t247.5 -102.5t247.5 102.5t102.5 247.5t-102.5 247.5t-247.5 102.5t-247.5 -102.5t-102.5 -247.5z" />
<glyph unicode="Q" d="M0 700q0 290 205 495t495 205t495 -205t205 -495t-205 -495t-495 -205t-495 205t-205 495zM200 700q0 -207 147 -353q109 -110 253 -138v317q-22 13 -41 33q-59 58 -59 141t58.5 141.5t141.5 58.5t141.5 -58.5t58.5 -141.5t-58 -141q-20 -20 -42 -33v-317q144 28 254 138 q146 146 146 353t-146.5 353.5t-353.5 146.5t-353.5 -146.5t-146.5 -353.5z" />
<glyph unicode="R" d="M0 0v1400h1400v-200q-207 0 -353.5 -146.5t-146.5 -353.5t146.5 -353.5t353.5 -146.5v-200q-290 0 -495 205t-205 495t205 495l5 5h-710v-1200h-200z" />
<glyph unicode="S" d="M0 700q0 290 205 495t495 205v-200q-207 0 -353.5 -146.5t-146.5 -353.5h-200zM500 700q0 83 58.5 141.5t141.5 58.5t141.5 -58.5t58.5 -141.5t-58.5 -141.5t-141.5 -58.5t-141.5 58.5t-58.5 141.5zM700 0v200q207 0 353.5 146.5t146.5 353.5h200q0 -290 -205 -495 t-495 -205z" />
<glyph unicode="T" d="M0 0q0 290 205 495q169 169 395 199v506h-600v200h1400v-200h-600v-506q226 -30 395 -199q205 -205 205 -495h-200q0 207 -146.5 353.5t-353.5 146.5t-353.5 -146.5t-146.5 -353.5h-200z" />
<glyph unicode="U" d="M0 700v700h200v-700q0 -207 146.5 -353.5t353.5 -146.5t353.5 146.5t146.5 353.5v700h200v-700q0 -290 -205 -495t-495 -205t-495 205t-205 495z" />
<glyph unicode="V" d="M0 1400h200q0 -207 146.5 -353.5t353.5 -146.5t353.5 146.5t146.5 353.5h200q0 -290 -205 -495t-495 -205t-495 205t-205 495zM500 200q0 83 58.5 141.5t141.5 58.5t141.5 -58.5t58.5 -141.5t-58.5 -141.5t-141.5 -58.5t-141.5 58.5t-58.5 141.5z" />
<glyph unicode="W" d="M0 700v700h200v-700q0 -207 146.5 -353.5t353.5 -146.5t353.5 146.5t146.5 353.5v700h200v-700q0 -290 -205 -495t-495 -205t-495 205t-205 495zM500 700q0 83 59 142q19 19 41 32v526h200v-526q22 -13 42 -32q58 -59 58 -142t-58.5 -141.5t-141.5 -58.5t-141.5 58.5 t-58.5 141.5z" />
<glyph unicode="X" d="M0 0v200q207 0 353.5 146.5t146.5 353.5t-146.5 353.5t-353.5 146.5v200q290 0 495 -205q169 -169 199 -395h12q30 226 199 395q205 205 495 205v-200q-207 0 -353.5 -146.5t-146.5 -353.5t146.5 -353.5t353.5 -146.5v-200q-290 0 -495 205q-169 169 -199 395h-12 q-30 -226 -199 -395q-205 -205 -495 -205z" />
<glyph unicode="Y" d="M0 0v200h600v506q-226 30 -395 199q-205 205 -205 495h200q0 -207 146.5 -353.5t353.5 -146.5t353.5 146.5t146.5 353.5h200q0 -290 -205 -495q-169 -169 -395 -199v-506h600v-200h-1400z" />
<glyph unicode="Z" d="M0 700h200q0 -207 146.5 -353.5t353.5 -146.5v-200q-290 0 -495 205t-205 495zM500 700q0 83 58.5 141.5t141.5 58.5t141.5 -58.5t58.5 -141.5t-58.5 -141.5t-141.5 -58.5t-141.5 58.5t-58.5 141.5zM700 1200v200q290 0 495 -205t205 -495h-200q0 207 -146.5 353.5 t-353.5 146.5z" />
<glyph unicode="[" horiz-adv-x="800" d="M0 0v1400h700v-200h-500v-1000h500v-200h-700z" />
<glyph unicode="\" d="M0 1200q0 83 58.5 141.5t141.5 58.5t141.5 -58.5t58.5 -141.5t-58.5 -141.5t-141.5 -58.5t-141.5 58.5t-58.5 141.5zM500 700q0 83 58.5 141.5t141.5 58.5t141.5 -58.5t58.5 -141.5t-58.5 -141.5t-141.5 -58.5t-141.5 58.5t-58.5 141.5zM1000 200q0 83 58.5 141.5 t141.5 58.5t141.5 -58.5t58.5 -141.5t-58.5 -141.5t-141.5 -58.5t-141.5 58.5t-58.5 141.5z" />
<glyph unicode="]" horiz-adv-x="800" d="M0 0v200h500v1000h-500v200h700v-1400h-700z" />
<glyph unicode="^" d="M0 700q0 290 205 495t495 205t495 -205t205 -495h-200q0 207 -146.5 353.5t-353.5 146.5t-353.5 -146.5t-146.5 -353.5h-200z" />
<glyph unicode="_" d="M0 0v200h1400v-200h-1400z" />
<glyph unicode="`" horiz-adv-x="500" d="M0 1200q0 83 58.5 141.5t141.5 58.5t141.5 -58.5t58.5 -141.5t-58 -141q-20 -20 -42 -33v-226h-200v226q-22 13 -41 33q-59 58 -59 141z" />
<glyph unicode="a" d="M0 0v700q0 290 205 495t495 205t495 -205t205 -495v-700h-200v700q0 207 -146.5 353.5t-353.5 146.5t-353.5 -146.5t-146.5 -353.5v-700h-200zM500 700q0 83 58.5 141.5t141.5 58.5t141.5 -58.5t58.5 -141.5t-58.5 -141.5t-141.5 -58.5t-141.5 58.5t-58.5 141.5z" />
<glyph unicode="b" d="M0 700v700h700q290 0 495 -205t205 -495t-205 -495t-495 -205t-495 205t-205 495zM200 700q0 -207 146.5 -353.5t353.5 -146.5t354 147q109 109 137 253h-317q-13 -22 -32 -41q-59 -59 -142 -59t-141.5 58.5t-58.5 141.5t58.5 141.5t141.5 58.5t142 -58q19 -20 32 -42 h317q-28 144 -137 254q-147 146 -354 146h-500v-500z" />
<glyph unicode="c" d="M0 700q0 290 205 495t495 205v-200q-207 0 -353.5 -146.5t-146.5 -353.5t146.5 -353.5t353.5 -146.5t353.5 146.5t146.5 353.5h200q0 -290 -205 -495t-495 -205t-495 205t-205 495z" />
<glyph unicode="d" d="M0 700q0 290 205 495t495 205t495 -205t205 -495t-205 -495t-495 -205v200q207 0 353.5 146.5t146.5 353.5t-146.5 353.5t-353.5 146.5t-353.5 -146.5t-146.5 -353.5h-200zM500 700q0 83 58.5 141.5t141.5 58.5t141.5 -58.5t58.5 -141.5t-58.5 -141.5t-141.5 -58.5 t-141.5 58.5t-58.5 141.5z" />
<glyph unicode="e" d="M0 0v1400h1400v-200h-1200v-400h326q13 22 33 42q58 58 141 58t141.5 -58.5t58.5 -141.5t-58.5 -141.5t-141.5 -58.5t-141 59q-20 19 -33 41h-326v-400h1200v-200h-1400z" />
<glyph unicode="f" d="M0 0v1400h1400v-200h-1200v-1200h-200zM500 700q0 83 58.5 141.5t141.5 58.5t141.5 -58.5t58.5 -141.5t-58.5 -141.5t-141.5 -58.5t-141.5 58.5t-58.5 141.5z" />
<glyph unicode="g" d="M0 700q0 290 205 495t495 205v-200q-207 0 -353.5 -146.5t-146.5 -353.5t146.5 -353.5t353.5 -146.5t353.5 146.5t146.5 353.5h200q0 -290 -205 -495t-495 -205t-495 205t-205 495zM500 700q0 83 58.5 141.5t141.5 58.5t141.5 -58.5t58.5 -141.5t-58.5 -141.5 t-141.5 -58.5t-141.5 58.5t-58.5 141.5z" />
<glyph unicode="h" d="M0 0v1400h200v-1400h-200zM500 700q0 83 58.5 141.5t141.5 58.5t141.5 -58.5t58.5 -141.5t-58.5 -141.5t-141.5 -58.5t-141.5 58.5t-58.5 141.5zM1200 0v1400h200v-1400h-200z" />
<glyph unicode="i" horiz-adv-x="300" d="M0 0v1400h200v-1400h-200z" />
<glyph unicode="j" d="M0 700h200q0 -207 146.5 -353.5t353.5 -146.5t353.5 146.5t146.5 353.5v700h200v-700q0 -290 -205 -495t-495 -205t-495 205t-205 495zM500 700q0 83 58.5 141.5t141.5 58.5t141.5 -58.5t58.5 -141.5t-58.5 -141.5t-141.5 -58.5t-141.5 58.5t-58.5 141.5z" />
<glyph unicode="k" d="M0 0v1400h200v-600h506q30 226 199 395q205 205 495 205v-200q-207 0 -353.5 -146.5t-146.5 -353.5t146.5 -353.5t353.5 -146.5v-200q-290 0 -495 205q-169 169 -199 395h-506v-600h-200z" />
<glyph unicode="l" d="M0 700v700h200v-700q0 -207 146.5 -353.5t353.5 -146.5t353.5 146.5t146.5 353.5h200q0 -290 -205 -495t-495 -205t-495 205t-205 495zM500 700q0 83 58.5 141.5t141.5 58.5t141.5 -58.5t58.5 -141.5t-58.5 -141.5t-141.5 -58.5t-141.5 58.5t-58.5 141.5z" />
<glyph unicode="m" d="M0 0v700q0 290 205 495t495 205t495 -205t205 -495v-700h-200v700q0 207 -146.5 353.5t-353.5 146.5t-353.5 -146.5t-146.5 -353.5v-700h-200zM500 700q0 83 58.5 141.5t141.5 58.5t141.5 -58.5t58.5 -141.5t-58 -141q-20 -20 -42 -33v-526h-200v526q-22 13 -41 33 q-59 58 -59 141z" />
<glyph unicode="n" d="M0 0v700q0 290 205 495t495 205t495 -205t205 -495v-700h-200v700q0 207 -146.5 353.5t-353.5 146.5t-353.5 -146.5t-146.5 -353.5v-700h-200z" />
<glyph unicode="o" d="M0 700q0 290 205 495t495 205t495 -205t205 -495t-205 -495t-495 -205t-495 205t-205 495zM200 700q0 -207 146.5 -353.5t353.5 -146.5t353.5 146.5t146.5 353.5t-146.5 353.5t-353.5 146.5t-353.5 -146.5t-146.5 -353.5z" />
<glyph unicode="p" d="M0 0v1400h200v-1400h-200zM300 850q0 228 161 389t389 161t389 -161t161 -389t-161 -389t-389 -161t-389 161t-161 389zM500 850q0 -145 102.5 -247.5t247.5 -102.5t247.5 102.5t102.5 247.5t-102.5 247.5t-247.5 102.5t-247.5 -102.5t-102.5 -247.5z" />
<glyph unicode="q" d="M0 700q0 290 205 495t495 205t495 -205t205 -495t-205 -495t-495 -205t-495 205t-205 495zM200 700q0 -207 147 -353q109 -110 253 -138v317q-22 13 -41 33q-59 58 -59 141t58.5 141.5t141.5 58.5t141.5 -58.5t58.5 -141.5t-58 -141q-20 -20 -42 -33v-317q144 28 254 138 q146 146 146 353t-146.5 353.5t-353.5 146.5t-353.5 -146.5t-146.5 -353.5z" />
<glyph unicode="r" d="M0 0v1400h1400v-200q-207 0 -353.5 -146.5t-146.5 -353.5t146.5 -353.5t353.5 -146.5v-200q-290 0 -495 205t-205 495t205 495l5 5h-710v-1200h-200z" />
<glyph unicode="s" d="M0 700q0 290 205 495t495 205v-200q-207 0 -353.5 -146.5t-146.5 -353.5h-200zM500 700q0 83 58.5 141.5t141.5 58.5t141.5 -58.5t58.5 -141.5t-58.5 -141.5t-141.5 -58.5t-141.5 58.5t-58.5 141.5zM700 0v200q207 0 353.5 146.5t146.5 353.5h200q0 -290 -205 -495 t-495 -205z" />
<glyph unicode="t" d="M0 0q0 290 205 495q169 169 395 199v506h-600v200h1400v-200h-600v-506q226 -30 395 -199q205 -205 205 -495h-200q0 207 -146.5 353.5t-353.5 146.5t-353.5 -146.5t-146.5 -353.5h-200z" />
<glyph unicode="u" d="M0 700v700h200v-700q0 -207 146.5 -353.5t353.5 -146.5t353.5 146.5t146.5 353.5v700h200v-700q0 -290 -205 -495t-495 -205t-495 205t-205 495z" />
<glyph unicode="v" d="M0 1400h200q0 -207 146.5 -353.5t353.5 -146.5t353.5 146.5t146.5 353.5h200q0 -290 -205 -495t-495 -205t-495 205t-205 495zM500 200q0 83 58.5 141.5t141.5 58.5t141.5 -58.5t58.5 -141.5t-58.5 -141.5t-141.5 -58.5t-141.5 58.5t-58.5 141.5z" />
<glyph unicode="w" d="M0 700v700h200v-700q0 -207 146.5 -353.5t353.5 -146.5t353.5 146.5t146.5 353.5v700h200v-700q0 -290 -205 -495t-495 -205t-495 205t-205 495zM500 700q0 83 59 142q19 19 41 32v526h200v-526q22 -13 42 -32q58 -59 58 -142t-58.5 -141.5t-141.5 -58.5t-141.5 58.5 t-58.5 141.5z" />
<glyph unicode="x" d="M0 0v200q207 0 353.5 146.5t146.5 353.5t-146.5 353.5t-353.5 146.5v200q290 0 495 -205q169 -169 199 -395h12q30 226 199 395q205 205 495 205v-200q-207 0 -353.5 -146.5t-146.5 -353.5t146.5 -353.5t353.5 -146.5v-200q-290 0 -495 205q-169 169 -199 395h-12 q-30 -226 -199 -395q-205 -205 -495 -205z" />
<glyph unicode="y" d="M0 0v200h600v506q-226 30 -395 199q-205 205 -205 495h200q0 -207 146.5 -353.5t353.5 -146.5t353.5 146.5t146.5 353.5h200q0 -290 -205 -495q-169 -169 -395 -199v-506h600v-200h-1400z" />
<glyph unicode="z" d="M0 700h200q0 -207 146.5 -353.5t353.5 -146.5v-200q-290 0 -495 205t-205 495zM500 700q0 83 58.5 141.5t141.5 58.5t141.5 -58.5t58.5 -141.5t-58.5 -141.5t-141.5 -58.5t-141.5 58.5t-58.5 141.5zM700 1200v200q290 0 495 -205t205 -495h-200q0 207 -146.5 353.5 t-353.5 146.5z" />
<glyph unicode="{" horiz-adv-x="800" d="M0 700q0 290 205 495t495 205v-200q-207 0 -353.5 -146.5t-146.5 -353.5t146.5 -353.5t353.5 -146.5v-200q-290 0 -495 205t-205 495z" />
<glyph unicode="|" horiz-adv-x="300" d="M0 0v1400h200v-1400h-200z" />
<glyph unicode="}" horiz-adv-x="800" d="M0 0v200q207 0 353.5 146.5t146.5 353.5t-146.5 353.5t-353.5 146.5v200q290 0 495 -205t205 -495t-205 -495t-495 -205z" />
<glyph unicode="~" horiz-adv-x="900" d="M0 600v200h800v-200h-800z" />
<glyph unicode="&#xad;" horiz-adv-x="900" d="M0 600v200h800v-200h-800z" />
<glyph unicode="&#x2000;" horiz-adv-x="750" />
<glyph unicode="&#x2001;" />
<glyph unicode="&#x2002;" horiz-adv-x="750" />
<glyph unicode="&#x2003;" />
<glyph unicode="&#x2004;" horiz-adv-x="500" />
<glyph unicode="&#x2005;" horiz-adv-x="375" />
<glyph unicode="&#x2006;" horiz-adv-x="250" />
<glyph unicode="&#x2007;" horiz-adv-x="250" />
<glyph unicode="&#x2008;" horiz-adv-x="187" />
<glyph unicode="&#x2009;" horiz-adv-x="300" />
<glyph unicode="&#x200a;" horiz-adv-x="83" />
<glyph unicode="&#x2010;" horiz-adv-x="900" d="M0 600v200h800v-200h-800z" />
<glyph unicode="&#x2011;" horiz-adv-x="900" d="M0 600v200h800v-200h-800z" />
<glyph unicode="&#x2012;" horiz-adv-x="900" d="M0 600v200h800v-200h-800z" />
<glyph unicode="&#x2013;" horiz-adv-x="1124" d="M0 600v200h1024v-200h-1024z" />
<glyph unicode="&#x2014;" horiz-adv-x="2148" d="M0 600v200h2048v-200h-2048z" />
<glyph unicode="&#x202f;" horiz-adv-x="300" />
<glyph unicode="&#x205f;" horiz-adv-x="375" />
<glyph unicode="&#x25fc;" horiz-adv-x="1400" d="M0 0v1400h1400v-1400h-1400z" />
</font>
</defs>
</svg>
